<?xml version="1.0" standalone="no"?><!DOCTYPE svg PUBLIC "-//W3C//DTD SVG 1.1//EN" "http://www.w3.org/Graphics/SVG/1.1/DTD/svg11.dtd"><svg t="1661929927672" class="icon" viewBox="0 0 1024 1024" version="1.1" xmlns="http://www.w3.org/2000/svg" p-id="3455" xmlns:xlink="http://www.w3.org/1999/xlink" width="32" height="32"><path d="M940 1.8H84c-37.6 0-68 30.5-68 68v884.4c0 37.6 30.5 68 68 68h856c37.6 0 68-30.5 68-68V69.8c0.1-37.6-30.4-68-68-68z m-258.3 183C799.8 246.2 880.5 369.7 880.5 512v0.3c-0.1-0.1-0.2-0.2-0.4-0.2-35.8-20.7-76-26.8-113.8-20.3-6.5-82.1-51.8-153.3-117.5-195.1 20.9-28.3 33.3-63.2 33.3-101.1 0-3.7-0.1-7.2-0.4-10.8zM512 102c51.7 0 93.5 41.9 93.5 93.5S563.6 289 512 289s-93.5-41.9-93.5-93.5S460.3 102 512 102z m-169.7 82.8c-0.2 3.5-0.3 7.1-0.3 10.7 0 37.9 12.4 72.8 33.3 101.1-65.8 41.9-111.1 113-117.5 195.1-37.8-6.5-78-0.3-113.8 20.3-0.1 0.1-0.2 0.2-0.4 0.2v-0.3c-0.1-142.2 80.6-265.7 198.7-327.1z m-66.6 555.6c-44.7 25.8-102 10.5-127.8-34.2-25.8-44.7-10.5-102 34.2-127.8 44.7-25.8 102-10.5 127.8 34.2 25.9 44.7 10.5 101.9-34.2 127.8zM512 880.5c-78.8 0-151.8-24.7-211.6-66.8 4.6-2.1 9.1-4.5 13.6-7.1 31.2-18 54.5-44.4 68.8-74.7 37.9 22.3 82.1 35.2 129.3 35.2s91.4-12.8 129.3-35.2c14.3 30.3 37.6 56.7 68.8 74.7 4.5 2.6 9 4.9 13.6 7.1-60 42.1-133 66.8-211.8 66.8z m364.1-174.4c-25.8 44.7-83 60.1-127.8 34.2-44.7-25.8-60.1-83-34.2-127.8 25.8-44.7 83-60.1 127.8-34.2 44.7 25.9 60 83.1 34.2 127.8z" fill="#FFB154" p-id="3456"></path></svg>