<?xml version="1.0" standalone="no"?><!DOCTYPE svg PUBLIC "-//W3C//DTD SVG 1.1//EN" "http://www.w3.org/Graphics/SVG/1.1/DTD/svg11.dtd"><svg t="1661929808268" class="icon" viewBox="0 0 1024 1024" version="1.1" xmlns="http://www.w3.org/2000/svg" p-id="2928" xmlns:xlink="http://www.w3.org/1999/xlink" width="32" height="32"><path d="M508.258 62.162c-251.137 0-454.765 203.622-454.765 454.765s203.622 454.765 454.765 454.765 454.765-203.622 454.765-454.765c0-251.137-203.622-454.765-454.765-454.765zM546.37 769.109l0 85.107-81.972 0 0-78.317c-55.344-2.61-109.121-18.274-140.449-35.503l24.54-96.59c34.462 18.8 83.538 36.549 137.317 36.549 48.031 0 79.886-18.8 79.886-51.166 0-31.327-26.627-51.166-88.237-72.052-88.237-29.763-148.804-71.01-148.804-151.413 0-73.618 51.166-130.529 139.405-147.236l0-78.317 80.931 0 0 72.574c54.302 1.566 91.892 14.097 120.609 27.148l-24.54 93.457c-20.885-9.921-59.523-29.235-119.041-29.235-53.776 0-71.01 24.017-71.01 46.989 0 26.627 28.714 44.902 100.249 69.964 98.157 34.983 137.317 80.406 137.317 155.59 0 73.618-51.166 136.799-146.19 152.459z" p-id="2929" fill="#FFB154"></path></svg>